<svg xmlns="http://www.w3.org/2000/svg" viewBox="0 0 640 360" shape-rendering="crispEdges">
<rect width="640" height="360" fill="#08101c"/><rect y="180" width="640" height="180" fill="#1a111c"/>
<g stroke="#d8b45d" stroke-opacity=".22"><path d="M320 180L40 360M320 180L160 360M320 180L280 360M320 180L360 360M320 180L480 360M320 180L600 360"/><path d="M0 220H640M0 265H640M0 315H640"/></g>
<g fill="#d9d4c5" stroke="#fff0a9" stroke-width="6"><circle cx="180" cy="145" r="34"/><circle cx="430" cy="120" r="25"/><circle cx="520" cy="210" r="42"/></g>
<g fill="#17121a"><circle cx="180" cy="145" r="8"/><path d="M420 120h20M430 110v20" stroke="#17121a" stroke-width="6"/><path d="M505 195l30 30M535 195l-30 30" stroke="#17121a" stroke-width="8"/></g>
<path d="M300 160h40M320 140v40" stroke="#f4d98f" stroke-width="3"/>
</svg>
